<?xml version="1.0" standalone="no"?>
<!DOCTYPE svg PUBLIC "-//W3C//DTD SVG 20010904//EN"
 "http://www.w3.org/TR/2001/REC-SVG-20010904/DTD/svg10.dtd">
<svg version="1.0" xmlns="http://www.w3.org/2000/svg"
 width="320.000000pt" height="320.000000pt" viewBox="0 0 320.000000 320.000000"
 preserveAspectRatio="xMidYMid meet">
<metadata>
Created by potrace 1.11, written by Peter Selinger 2001-2013
</metadata>
<g transform="translate(0.000000,320.000000) scale(0.100000,-0.100000)"
fill="#000000" stroke="none">
<path d="M0 1600 l0 -1600 1600 0 1600 0 0 1600 0 1600 -1600 0 -1600 0 0
-1600z m2984 796 c18 -8 46 -31 62 -52 l29 -37 3 -695 2 -695 -25 -39 c-14
-20 -43 -47 -65 -58 -39 -20 -50 -20 -1409 -18 l-1370 3 -28 21 c-15 11 -38
38 -50 60 l-23 39 3 692 c2 680 2 692 23 720 11 15 40 38 64 51 l44 22 1353 0
c1135 0 1359 -2 1387 -14z"/>
<path d="M225 2385 c-47 -16 -93 -66 -100 -110 -3 -16 -5 -327 -3 -690 3 -639
4 -661 23 -694 11 -19 33 -43 48 -55 l28 -21 1357 -3 1357 -2 45 22 c24 13 53
36 64 51 21 28 21 40 24 705 l2 677 -22 44 c-13 25 -36 54 -51 65 -28 21 -33
21 -1380 23 -1145 2 -1358 0 -1392 -12z m1713 -100 c20 -43 14 -103 -29 -311
-22 -110 -43 -234 -46 -276 -5 -68 -4 -78 12 -84 10 -4 25 -3 34 3 22 14 59
91 67 141 7 47 29 57 37 15 13 -70 -56 -184 -119 -196 -32 -6 -94 16 -94 32 0
21 -15 10 -39 -28 -45 -74 -130 -92 -167 -36 l-16 24 -35 -47 c-19 -26 -52
-63 -73 -82 -34 -32 -37 -40 -44 -109 -15 -167 -60 -306 -106 -331 -28 -15
-53 -5 -89 36 -27 30 -31 42 -31 92 0 75 31 140 104 217 40 43 56 68 56 88 l0
28 -30 -35 c-57 -64 -126 -55 -150 20 -21 62 13 304 51 377 12 21 12 21 35 -7
29 -33 30 -51 4 -168 -12 -53 -20 -117 -18 -152 3 -54 6 -61 24 -64 43 -6 77
80 124 312 16 82 32 151 35 155 3 3 14 0 23 -5 34 -22 36 -65 8 -242 -14 -93
-26 -175 -26 -181 0 -21 65 63 92 120 15 30 31 85 37 123 18 127 104 264 177
282 18 5 34 0 53 -14 l28 -21 17 87 c49 251 67 297 94 237z m-717 -246 c17
-14 20 -22 11 -26 -7 -2 -57 -26 -110 -53 l-98 -48 -27 -123 c-15 -68 -27
-129 -27 -136 0 -9 9 -8 35 3 60 25 126 14 125 -21 -1 -5 -39 -28 -86 -49 -46
-22 -88 -44 -93 -50 -5 -6 -17 -68 -27 -138 -18 -133 -27 -150 -58 -106 -31
44 -13 225 48 496 l23 103 -21 11 c-42 22 -46 43 -10 52 14 4 67 26 117 50
141 66 160 69 198 35z m536 -576 c3 -9 -1 -45 -11 -79 -9 -35 -14 -75 -10 -89
4 -15 2 -25 -5 -25 -6 0 -11 -16 -11 -35 0 -19 -4 -35 -9 -35 -11 0 -21 25
-21 51 0 15 -7 19 -39 19 -35 0 -42 -4 -63 -37 -16 -28 -24 -33 -26 -21 -2 9
2 26 7 37 6 11 8 27 5 35 -4 10 -1 16 7 16 8 0 26 20 42 44 34 54 105 136 118
136 5 0 12 -7 16 -17z m515 -150 l-3 -88 26 30 c19 24 25 26 25 12 0 -10 -11
-29 -25 -42 -28 -29 -85 -34 -110 -9 -14 15 -17 15 -33 0 -29 -25 -122 -22
-122 5 0 25 -19 3 -45 -51 -28 -58 -56 -71 -35 -16 14 38 13 44 -11 48 -42 6
-47 34 -16 89 16 28 26 53 24 55 -8 8 -78 -71 -95 -108 -9 -21 -20 -38 -24
-38 -20 -1 -17 28 10 83 17 34 30 63 28 64 -9 10 -57 -44 -82 -92 -16 -30 -33
-55 -38 -55 -17 0 3 71 35 127 27 47 34 54 43 41 9 -15 12 -15 38 0 26 15 29
15 41 -3 13 -17 15 -17 38 -2 29 21 35 21 43 1 4 -10 -6 -41 -23 -74 -19 -36
-26 -61 -21 -70 13 -21 32 -1 81 86 39 68 59 90 59 64 0 -7 7 -7 21 0 52 28
66 -68 20 -131 -12 -16 -18 -29 -14 -29 19 0 51 31 57 55 4 14 12 25 19 25 12
0 57 62 57 79 0 6 8 15 18 20 9 6 17 11 17 11 0 0 -1 -39 -3 -87z m-636 -286
c4 -4 0 -7 -9 -7 -13 0 -17 -9 -17 -39 0 -22 -4 -43 -10 -46 -6 -4 -10 12 -10
39 0 34 -4 46 -15 46 -8 0 -15 4 -15 8 0 10 66 9 76 -1z m59 -72 c17 0 21 8
23 45 2 24 7 39 10 32 13 -19 1 -90 -15 -97 -32 -12 -51 4 -55 48 -3 23 -2 47
1 52 3 6 8 -10 11 -35 4 -37 9 -45 25 -45z m205 75 c0 -5 -7 -10 -15 -10 -21
0 -19 -30 3 -31 16 -1 16 -2 0 -6 -25 -6 -23 -33 2 -33 11 0 20 -5 20 -11 0
-6 -12 -9 -27 -7 -26 3 -28 7 -31 50 -3 42 -1 47 20 51 13 2 24 5 26 6 1 0 2
-3 2 -9z m282 -42 c6 -50 -8 -69 -14 -20 l-4 27 -14 -27 c-7 -16 -16 -28 -20
-28 -4 0 -13 12 -20 28 l-13 27 -8 -30 c-6 -26 -7 -24 -8 18 -1 54 11 61 29
17 7 -16 16 -30 19 -30 4 0 15 16 25 36 9 20 18 35 20 33 2 -2 6 -25 8 -51z
m88 16 c0 -17 -6 -24 -20 -24 -15 0 -20 -7 -20 -26 0 -14 -4 -23 -10 -19 -15
9 -13 92 3 98 25 8 47 -5 47 -29z m125 -14 c-3 -16 -2 -31 4 -35 6 -3 11 -11
11 -17 0 -6 -11 -1 -24 11 l-23 22 -8 -23 c-7 -19 -9 -14 -12 26 -5 54 8 71
40 55 14 -8 17 -17 12 -39z m85 41 c3 -1 -5 -6 -17 -11 -13 -5 -23 -14 -23
-20 0 -5 10 -10 23 -11 l22 0 -22 -9 c-28 -12 -30 -30 -3 -30 11 0 20 -4 20
-10 0 -5 -11 -10 -25 -10 -24 0 -25 3 -25 54 0 49 2 53 23 51 12 -1 24 -3 27
-4z m90 -27 c0 -8 -11 -19 -24 -24 -14 -5 -26 -19 -29 -32 -2 -13 -5 0 -6 29
-1 54 10 68 42 51 9 -5 17 -15 17 -24z m127 -46 c-2 -18 -4 -6 -4 27 0 33 2
48 4 33 2 -15 2 -42 0 -60z m88 32 c-3 -16 -2 -31 4 -35 6 -3 11 -11 11 -17 0
-6 -11 -1 -24 11 l-23 22 -8 -23 c-7 -19 -9 -14 -12 26 -5 54 8 71 40 55 14
-8 17 -17 12 -39z m-963 2 c10 -38 -3 -62 -33 -62 -16 0 -19 8 -19 51 0 46 2
50 22 47 15 -2 24 -13 30 -36z m227 -52 c0 -12 -2 -11 -10 3 -12 20 -45 23
-52 5 -2 -7 -7 -11 -10 -8 -3 3 3 26 15 50 l20 45 19 -40 c10 -22 18 -47 18
-55z m595 44 c10 -25 16 -48 12 -51 -3 -3 -8 2 -12 11 -8 21 -40 21 -48 0 -4
-9 -9 -14 -12 -11 -7 7 26 97 35 97 3 0 14 -21 25 -46z"/>
<path d="M1748 1922 c-55 -59 -98 -180 -98 -278 0 -110 50 -121 95 -21 25 54
55 201 55 267 0 54 -20 67 -52 32z"/>
<path d="M1322 1302 c-45 -62 -78 -173 -67 -224 15 -66 46 -8 77 141 10 51 17
98 15 104 -2 6 -13 -4 -25 -21z"/>
<path d="M1679 1373 c-54 -75 -54 -73 -16 -73 34 0 34 1 46 57 6 31 10 58 8
60 -2 1 -19 -18 -38 -44z"/>
<path d="M2070 1318 c-27 -37 -41 -98 -22 -98 26 1 72 72 72 113 0 38 -15 34
-50 -15z"/>
<path d="M2207 1278 c-16 -29 -17 -33 -2 -47 14 -14 17 -14 25 -1 11 18 13 80
3 80 -5 0 -16 -14 -26 -32z"/>
<path d="M2230 1004 c0 -17 22 -14 28 4 2 7 -3 12 -12 12 -9 0 -16 -7 -16 -16z"/>
<path d="M2360 1005 c0 -8 5 -15 10 -15 6 0 10 7 10 15 0 8 -4 15 -10 15 -5 0
-10 -7 -10 -15z"/>
<path d="M2520 1005 c0 -8 7 -15 15 -15 8 0 15 7 15 15 0 8 -7 15 -15 15 -8 0
-15 -7 -15 -15z"/>
<path d="M2750 1005 c0 -8 5 -15 10 -15 6 0 10 7 10 15 0 8 -4 15 -10 15 -5 0
-10 -7 -10 -15z"/>
<path d="M1780 1005 c0 -8 5 -15 10 -15 6 0 10 7 10 15 0 8 -4 15 -10 15 -5 0
-10 -7 -10 -15z"/>
<path d="M1780 965 c0 -8 7 -15 15 -15 8 0 15 7 15 15 0 8 -7 15 -15 15 -8 0
-15 -7 -15 -15z"/>
<path d="M2006 991 c-4 -7 -5 -15 -2 -18 9 -9 19 4 14 18 -4 11 -6 11 -12 0z"/>
<path d="M2610 980 c0 -5 5 -10 10 -10 6 0 10 5 10 10 0 6 -4 10 -10 10 -5 0
-10 -4 -10 -10z"/>
</g>
</svg>
